<?xml version="1.0" encoding="utf-8"?>
<!-- Generator: Adobe Illustrator 19.2.1, SVG Export Plug-In . SVG Version: 6.00 Build 0)  -->
<svg version="1.1" id="Layer_1" xmlns="http://www.w3.org/2000/svg" xmlns:xlink="http://www.w3.org/1999/xlink" x="0px" y="0px"
	 viewBox="0 0 102.4 71.4" style="enable-background:new 0 0 102.4 71.4;" xml:space="preserve">
<style type="text/css">
	.st0{fill:#4B351C;}
</style>
<g>
	<path class="st0" d="M96.8,4.7c0.1,0.2,0.1,0.5,0.1,0.7c0,1.7-1.3,3-2.9,3c-1.6,0-2.9-1.3-2.9-3c0-1.3,0.9-2.5,2.1-2.9
		C90.3,1.1,87.6,0,85.5,0c-0.6,0-1.2,0.1-1.7,0.2c0,0,0.1,0,0.1,0.1c1,0.8,1.3,2.2,0.5,3.3c-0.7,1.1-2.2,1.3-3.2,0.5
		c-0.3-0.2-0.7-0.4-1.3,0c-0.6,0.4-1.1,1.4-0.8,2.4c0.5,1.9,3.6,1.5,3.6,1.5c0.1,0,0.2,0,0.3,0c0.9,0,1.8,0.6,2.1,1.4
		c1,2.4,2.8,3.6,5.3,3.6c2.9,0,8.1-1.3,10.8-2.1l1.2-2.4C100.9,7.3,99,6,96.8,4.7z"/>
	<path class="st0" d="M31.3,59.1h15.1l-3.7-5.2C38.9,55.9,35.1,57.6,31.3,59.1z"/>
	<path class="st0" d="M83.9,11.1c-1.9-0.1-4.5-0.9-5.2-3.7c0,0,0,0,0,0c-1.4,2.1-2.5,4.5-3.2,6.3c-3.1,7.9-8.2,7.9-11.2,7.9
		c-1.5,0-4.5-0.6-7.9-1.2c-4.1-0.8-8.7-1.7-11.3-1.7c0,0,0,0,0,0c-2.7,0-9.7,0.6-16.1,5.9c-6.2,5.1-9.7,12.9-10.5,23.2
		c-0.1,0.7-0.6,1.4-1.3,1.6c0,0-4.6,1.3-9,3.2C1.7,55.2,0,57.3,0,58.1c0,7.5,14.5,13.3,20.4,13.3c2.2,0,5.3-1.3,5.6-3.6
		c0.2-1.4-1.4-2.1-2.3-2.3c-8.9-2.2-13.4-5.8-13.6-6c-0.4-0.4-0.7-0.9-0.6-1.5c0.1-0.6,0.4-1.1,0.9-1.4c3.7-2,11.1-2.1,11.9-2.1
		c0.5,0,0.6,0,3.4,1.9c0.1,0,0.2,0,0.3,0c9.5,0,13.3-4.4,13.9-5.2c2-2.7,2.4-6.5,1-11.3c-0.3-0.9,0.3-1.9,1.2-2.2
		c0.9-0.3,1.9,0.3,2.1,1.2c0.6,2.1,0.9,4,0.9,5.9c3.1-0.3,10.3-1.2,15.3-3c-0.5-0.8-0.9-1.4-1-1.7c-1-2.4,1.5-5,2.2-5.8
		c0.7-0.7,1.8-0.6,2.4,0.1c0.7,0.7,0.6,1.8-0.1,2.5c-0.6,0.6-1.2,1.5-1.4,1.9C63.9,41,74.1,55.4,76.4,58h5.3l-1.2-1.8
		c0-0.1-0.1-0.1-0.2-0.1l-1.9,0.4c-0.7,0.2-1.5-0.2-1.9-0.9c-0.5-0.9-4.6-8.5-4.4-12.7c0.1-2.6,0.6-4.1,1.2-5.5
		c0.3-0.7,0.5-1.4,0.7-2.4c0.2-0.9,1.1-1.5,2.1-1.3c0.9,0.2,1.5,1.2,1.3,2.1c-0.1,0.4-0.2,0.7-0.3,1.1c3.5-2.2,8.4-6.5,9.8-13.1
		c0.9-4,1.8-8.9,1.8-9.3C86.7,14.2,85,13,83.9,11.1z"/>
</g>
</svg>
