<?xml version="1.0" encoding="utf-8"?>
<!-- Generator: Adobe Illustrator 19.2.1, SVG Export Plug-In . SVG Version: 6.00 Build 0)  -->
<svg version="1.1" id="Layer_1" xmlns="http://www.w3.org/2000/svg" xmlns:xlink="http://www.w3.org/1999/xlink" x="0px" y="0px"
	 viewBox="0 0 640 640" style="enable-background:new 0 0 640 640;" xml:space="preserve">
<g>
	<path d="M2.4,387c6.6-4.2,12.8-9.6,19.9-12.5c37.2-14.7,70.2-35.9,102.9-59.2c50.1-35.7,106.4-31,159.7-8.2
		c51.1,21.8,103.8,35.4,158,45c0.8,0.1,1.6,0.1,2.4,0.3c14.8,4.5,33.9,4.7,34.1,26.5c0.1,14.4-26.6,28-46,24.7
		c-30.5-5.2-61-10.7-91.6-15.8c-20.7-3.5-41.3-2.8-61,5.2c-4.2,1.7-9.4,4.5-6.7,10.5c0.8,1.8,5.9,3.4,8.1,2.6
		c49.2-17.8,95.7,5,143.2,10.2c20.3,2.2,38,0.1,53.9-12.8c9.8-8,17.8-19.4,12.8-31.1c-7.2-16.9,1.2-23.1,12.7-31.7
		c24.1-18.2,47.5-37.5,70.2-57.3c18.8-16.4,38.1-8.1,55.7-1c10.8,4.4,12.1,17.3,4.5,28.8c-36.1,54.5-70.7,109.8-137,134.3
		c-24.5,9-47.4,22.9-69.9,36.3c-32.8,19.6-66.7,18-101.4,8.2c-32.2-9.1-64.7-17.1-96.3-27.9c-36.4-12.4-68.8-1.5-101.2,13
		c-16,7.2-32.3,13.9-47.5,22.4c-17.6,9.9-30,4.8-40.5-10.4c-13.6-19.9-23.9-41.3-30.2-64.6c-2-7.3-5.7-12.9-8.6-21.1
		C0.5,396.3-1.9,392,2.4,387z"/>
	<path d="M341.7,194.6c-1.9-27,10.3-43.7,33.5-53c22.4-9,45.9-1.6,63,19.9c14.6,18.2,12,24.8,29-0.9c15.6-23.4,44.9-29,68-17.5
		c21.6,10.8,33.8,39.5,27,65.2c-14.9,56.4-60.9,84.9-104.8,115c-4.4,3-9.3,1.8-13.4-1.2c-35.6-26.4-74.6-49.1-94-92.2
		C344.7,218.1,340.3,206.4,341.7,194.6z"/>
</g>
</svg>
