<?xml version="1.0" encoding="utf-8"?>
<!-- Generator: Adobe Illustrator 19.2.1, SVG Export Plug-In . SVG Version: 6.00 Build 0)  -->
<svg version="1.1" id="Layer_1" xmlns="http://www.w3.org/2000/svg" xmlns:xlink="http://www.w3.org/1999/xlink" x="0px" y="0px"
	 viewBox="0 0 640 640" style="enable-background:new 0 0 640 640;" xml:space="preserve">
<g>
	<path d="M0,504.4c8.2-11.9,21.2-16.3,33.8-21.1c29.5-11.3,55.4-28,80.5-47.4c52.7-40.7,111.7-37.2,169.3-13.6
		c50.9,20.9,102.8,35.9,157,44.2c1.6,0.2,3.3,0.4,4.7,1.1c13.5,6.1,35,4,32.6,27.5c-1.4,14-27.6,25.4-45.8,22.1
		c-31.5-5.7-63-11.5-94.6-16.6c-19.3-3.1-38.5-0.6-57.1,5.4c-4.9,1.6-11.3,4.1-9,11.9c1.4,4.6,4.6,6,9.3,4.2
		c49.4-18.4,96.2,3.8,143.9,9.9c44.8,5.8,68.6-13.1,64.7-57.4c-0.6-6.2,2.4-8.8,6-11.7c26.9-21.6,54.2-42.6,80.5-64.8
		c18.1-15.3,37-8,54.2-1.8c11.9,4.3,12.7,17.6,4.9,28.7c-20.8,29.5-40.7,59.8-63.2,88c-19.2,24-50.4,30.8-75.6,46.2
		c-22.6,13.8-47.4,23.9-70.2,37.3c-33.3,19.7-67.3,17-102.2,6.9c-30.8-8.9-62-16.5-92.3-26.7c-34.4-11.6-66.1-5.5-97.5,9.3
		c-18.2,8.6-36.9,16-54.6,25.4c-17.6,9.3-29.4,5-41-10.3C18.5,574.9,12.9,543,0,514.1C0,510.9,0,507.7,0,504.4z"/>
	<path d="M412.1,432.6c-107.8,5.5-204.9-89.2-204.2-205.3c0.7-107.2,86.8-205.2,206.8-203.6c114.2,1.6,206.9,91.6,206,204.7
		C619.7,352.6,514,440,412.1,432.6z M438.6,158.4c-6.9,37.2-1.2,69,5.2,101.4c3.7,18.9,7.7,22.6,25.7,13.1c34.2-18,70.5-32,109-36.8
		c21.2-2.6,23.6-12.3,21.5-30.2C588.5,103.3,486.6,21.9,373,45.3c-97.5,20-168.8,133.1-141,225.9c2.9,9.6,5.6,16.1,17.2,15.3
		c36.5-2.5,71.9,4.8,107.1,13.5c10.7,2.7,16.8,1.4,16.5-11.9c-0.6-21.1,6.7-40.8,11.6-61.1c4.9-20.5,14.1-41.7,1.7-63.1
		c-16.4,10.8-27,50-38.4,44.4c-6.1-5.4,18.9-44.1,30.5-63.4c15.8-26.3,52.9-28.7,70.6-4.3c11.3,15.6,17.1,34.3,23.2,52.6
		c1.3,3.8,2.2,8.4-2.6,10.3c-5.4,2.1-8.5-0.2-10.3-6.2C455.1,184.6,452.1,171.1,438.6,158.4z M410.4,212
		c-8,30.5-17.3,53.7-19.2,78.8c-0.5,6.8-3.4,15.5,3.8,19.7c10.9,6.4,17.3-4.4,25.1-9.1c6.3-3.8,15.1-5.9,11.4-17.5
		C424.6,262.5,418.7,240.7,410.4,212z"/>
	<path d="M412,80.8c12.6,1,15.8,8.2,15.7,18c-0.1,10-4.2,17.9-14.8,17.2c-9.6-0.6-15.2-8-15-18C398.1,88.1,403.2,81.9,412,80.8z"/>
</g>
</svg>
