<?xml version="1.0" encoding="utf-8"?>
<!-- Generator: Adobe Illustrator 19.2.1, SVG Export Plug-In . SVG Version: 6.00 Build 0)  -->
<svg version="1.1" id="Layer_1" xmlns="http://www.w3.org/2000/svg" xmlns:xlink="http://www.w3.org/1999/xlink" x="0px" y="0px"
	 viewBox="0 0 640 640" style="enable-background:new 0 0 640 640;" xml:space="preserve">
<g>
	<path d="M0,446.3c8.2-11.9,21.2-16.3,33.8-21.1c29.5-11.3,55.4-28,80.5-47.4C167,337,226,340.5,283.6,364.1
		c50.9,20.9,102.8,35.9,157,44.2c1.6,0.2,3.3,0.4,4.7,1.1c13.5,6.1,34.9,4,32.6,27.5c-1.4,14-27.6,25.4-45.8,22.1
		c-31.5-5.7-63-11.5-94.6-16.6c-19.3-3.1-38.5-0.6-57.1,5.4c-4.9,1.6-11.3,4.1-9,11.9c1.4,4.6,4.6,6,9.3,4.2
		c49.4-18.4,96.3,3.8,143.9,10c44.7,5.8,68.6-13.1,64.7-57.4c-0.6-6.2,2.4-8.8,6.1-11.7c26.9-21.6,54.2-42.6,80.5-64.8
		c18.1-15.3,37-8,54.2-1.8c11.9,4.3,12.7,17.6,4.9,28.7c-20.8,29.5-40.7,59.8-63.2,88c-19.2,24-50.4,30.8-75.6,46.2
		c-22.6,13.8-47.4,23.9-70.2,37.3c-33.3,19.7-67.3,17-102.2,6.9c-30.8-8.9-62-16.5-92.3-26.7c-34.4-11.6-66.1-5.5-97.5,9.3
		c-18.1,8.6-36.9,16-54.6,25.4c-17.6,9.3-29.4,5-41-10.4C18.5,516.8,12.9,484.8,0,456C0,452.7,0,449.5,0,446.3z"/>
	<path d="M227.7,231.1c0,26.9,0.4,53.7-0.2,80.6c-0.1,6.7,5.1,18.3-8.6,17.9c-11-0.3-10.9-9.7-10.9-18c0-42.7-1-85.5,0.4-128.2
		c0.7-20.4-5.4-35.4-20.5-48.6c-10.8-9.5-19.7-21.1-29.4-31.9c-4.8-5.4-6.6-13.1-1.8-17.5c5.6-5.1,9.5,2.8,13.3,6.2
		c7.1,6.5,13.8,13.6,20.6,20.4c27,26.9,56.4,27.2,82.9,0.6c39.5-39.6,35.7-41.3,76-0.2c26.3,26.8,56.6,26.6,83,0
		c35.6-35.7,34.2-46.6,76.3,3.3c16.5,19.5,57,22.1,75.2,4c9.1-9.1,16.9-19.4,25.6-28.8c4.9-5.3,11.3-12.3,18.1-5.3
		c6.6,6.9-0.8,13.1-5.5,18.4c-9.6,10.8-18,23.1-29.2,31.9c-16.4,13.1-19.5,29.2-19,48.8c1.1,41.1,0.4,82.2,0.3,123.4
		c0,9.4,1.8,22.3-12.3,21.3c-13.1-0.9-7.9-13.7-8.1-21.5c-0.6-25.4-0.2-50.9-0.2-76.4c-2.6,0-5.1,0-7.7,0c0,26.1,0.2,52.3-0.1,78.4
		c-0.1,8,3.8,19.8-10.4,20c-12.7,0.2-12.7-11.1-12.9-19.4c-0.6-34.7-3-69.6,0.4-103.9c3.7-38.1-9.9-64.9-36.5-91.1
		c-16.8-16.5-21.7-10.4-35.8,1.4c-32.9,27.5-38.2,61.8-35.3,101.4c2.3,31.3,0.4,62.9,0.5,94.3c0,8.8-1.4,17.2-12.1,17.1
		c-11.8-0.2-7.4-10.5-7.6-16.7c-0.6-21.8-0.1-43.5-0.3-65.3c0-5.9,1.6-12.6-8.9-20c0,30.6,0.2,57.4-0.1,84.2
		c-0.1,7.3,3.2,17.6-9.6,18.1c-13.6,0.6-9.9-10.2-10-17.3c-0.3-39.5-2.2-79.2,0.5-118.5c1.9-27-8.1-46-26.1-63.4
		c-10.3-10-20.1-20.4-30.1-30.7c-10.1,10.3-20,20.7-30.2,30.8c-17.1,16.8-27.3,34.9-25.5,61.2c2.7,39.3,1,79,0.5,118.5
		c-0.1,6.9,4.9,18.5-7.8,19c-13.1,0.4-11.3-11.4-11.4-19.7c-0.4-26.3-0.2-52.6-0.2-78.8C233.9,231,230.8,231.1,227.7,231.1z"/>
	<path d="M385.3,86.5c16.9-1.5,24,5.1,25.1,15.7c1.3,12.5-6.4,19.5-18.9,19.7c-11.3,0.2-18-6.3-18.8-17.5
		C372,92.4,379.6,87.4,385.3,86.5z"/>
	<path d="M253.2,103.8c-1.6,12.5-9.3,18.1-21.3,18.1c-12.5,0-17.5-9.6-17.1-19.1c0.4-9.9,7.2-17.9,19.4-17
		C245.2,86.8,252.2,92,253.2,103.8z"/>
	<path d="M549.2,85.9c9.8,0.4,17.3,4.7,17.6,16.8c0.3,11.2-4.8,18.6-16.4,19.2c-11.1,0.5-18-4.8-18.5-16.8
		C531.4,93.4,536.2,86.8,549.2,85.9z"/>
</g>
</svg>
