<?xml version="1.0" encoding="utf-8"?>
<!-- Generator: Adobe Illustrator 19.0.0, SVG Export Plug-In . SVG Version: 6.00 Build 0)  -->
<svg version="1.1" id="Layer_1" xmlns="http://www.w3.org/2000/svg" xmlns:xlink="http://www.w3.org/1999/xlink" x="0px" y="0px"
	 viewBox="0 0 1559.4 612" preserveAspectRatio="none" style="enable-background:new 0 0 1559.4 612;" xml:space="preserve">
<style type="text/css">
	.st0{fill-rule:evenodd;clip-rule:evenodd;}
</style>
<path class="st0" d="M1539,289c0,0-22.2,14-6,51c7,16-6.1,38.9-5,46c3.7,24.7,11.1,20.7,20.2,44.8c8.6,22.9,5.4,46.5-3.6,70.3
	c-1.2,3.1-0.4,6.2-1,9.3c0,6.6-0.8,46-1.7,72.1c-0.4,11.1-8.2,19.7-12.7,22.6c-2.1,1.4-24,8.3-52.9,6.1
	c-66.4-5.2-245.4-5.5-376.1-7.7c-245.8-4-492.6,3.4-729.5,3.7c-101.5,0.2-188,5.2-251.7,4.8c-71-0.5-98.9-0.5-100.6-1.3
	C8.9,606.2,2,593.4,2,593.4s-2.1-40.1-2-47.3c0.1-4.2,2.1-13.2,3.5-17.3c2-6-4.4-7,0-13.5c7.7-11.4,14.8-18.1,13.8-29.5
	c-0.9-11.2-6-25.2-5.2-39.8c4.9-83.9-3.9-188.3,1.7-218.6c4.2-22.6-3.8-42.5-8.2-69.8c-3.8-23.4-8.3-26.8,7-52.8
	c5.2-8.9,14.2-16.5,18.2-16.8C74.3,84.5,237,86,257,80c20-6,90.6-32.5,118-33.8c81-3.8,263.7-11.6,437.1-15.3
	c40.1-0.9,108.7-3.1,147-5.1c157.2-8.1,279.2-14.4,298.3-15c39.7-1.3,78.6-6.2,95.3-6.9c31.9-1.3,68.9-9.1,102.7,2.2
	c19.3,6.4,15.9,31.1,19.3,48.3c3.4,17.1-5.7,37,20.1,65.2c10.8,11.7,26.8,22.8,40.4,34.1c1.6,1.3,3.1,2.8,3.7,4.2
	c6.9,15.5,20.3,29.5,20.3,46.5c0,17-2.4,15.6-2.4,29.6C1557,248,1548.2,268.8,1539,289z"/>
</svg>
