<?xml version="1.0" encoding="utf-8"?>
<!-- Generator: Adobe Illustrator 19.2.1, SVG Export Plug-In . SVG Version: 6.00 Build 0)  -->
<svg version="1.1" id="Layer_1" preserveAspectRatio="none" xmlns="http://www.w3.org/2000/svg" xmlns:xlink="http://www.w3.org/1999/xlink" x="0px" y="0px"
	 viewBox="0 0 1431.4 795.2" style="enable-background:new 0 0 1431.4 795.2;" xml:space="preserve">
<style type="text/css">
	.st0{fill-rule:evenodd;clip-rule:evenodd;fill:#87741C;}
</style>
<path class="st0" d="M4.2,335.2c0,29.9-1.9,86.4-3.1,124.2c-0.2,5.2,0.3,10.3,0.6,15.4c0.8,15.8,2.5,31.4,2.2,47.3
	c-0.2,10.7-1.1,21.5-1.9,32.4c-0.4,5.4-0.8,10.8-1.1,16.2c-0.1,2.7-0.3,5.4-0.3,8.1c0,1.3-0.1,2.7-0.1,4c0,0.7,0,1.3,0,2
	c0,0.7,0,1.3,0,2c0.3,44.1-1.1,88.7,0,132.8c0.2,9.7,0.1,19.5,1.9,28.7c6.4,32.7,11,34.3,32.1,36.4c25.6,2.5,61.6,3.2,87.9,8.3
	c25.2,4.9,53,0.4,79.8-3.9c19.4-3.2,200-6.3,400-8.7c198.2-2.2,418.3-3.6,451,1c25.9,3.9,52.4,7.7,79.3,9.9
	c13.5,1.1,27.1,1.8,40.7,1.8c1.7,0,3.4,0,5.1,0c1.7,0,3.4,0,5.1-0.1c3.4-0.1,6.9-0.2,10.3-0.3c6.9-0.3,13.7-0.7,20.6-1.4
	c50.5-4.9,123.1-12.1,174.3-21.2c13-2.6,28.1-13,31.6-23.3c6-18.2,5.7-39.1,5.8-59.1c0.9-59.1-2.4-51.9,1.9-111.1
	c1.3-14.4-0.5-29.5,2.6-44c2.1-9.9,0.5-19.6-1.2-29.3c-1.7-9.7-3.5-19.5-1.9-29.5c0.6-3.9,1.3-7.9,1.7-11.9c0.2-2,0.4-4,0.4-6
	c0-1,0-2,0-2.9c0-0.5,0-1-0.1-1.5c0-0.5-0.1-1-0.1-1.4c-2.8-27.1-7.8-42.7-8.3-70c-0.5-31-8-81.7-7.8-107.7
	c0.1-15.7-3-39.3-2.6-56.7c0.4-17.5,14-71,14-96.5c0-25.5-4.8-30.9-4.3-61.7C1420.8,19,1420,0,1420,0s-8,5.2-15.8,4.6
	c-1.9-0.2-4-0.2-6.2-0.2c-1.1,0-2.2,0-3.4,0.1c-1.1,0.1-2.3,0.1-3.5,0.2c-4.7,0.4-9.8,1-14.8,1.8c-20.3,3.2-41.3,8.9-47.6,9.6
	c-49.1,5.6-97.6,11.4-145.3,17.6c-51.8,6.7-101.4,15.6-149.7,24.3c-17.9,3.2-46.7-3-118.8,11.6c-65.7,13.3-168.4,38.2-249.3,49.9
	c-99.6,14.4-194.5,43.6-277,52.1c-102.6,10.6-180.8,29-186.8,29.7c-26.7,3-54.4,6.2-79.6,10.8c-26.2,4.8-40.4,7.6-66,11.8
	c-16.2,2.6-40.8,11.6-40.8,11.6l-14.9,0.9c0,0,0,42.5,0,61.7C0.4,311.6,4.2,324.2,4.2,335.2z"/>
</svg>
