<?xml version="1.0" encoding="utf-8"?>
<!-- Generator: Adobe Illustrator 19.2.1, SVG Export Plug-In . SVG Version: 6.00 Build 0)  -->
<svg version="1.1" preserveAspectRatio="none" id="Layer_1" xmlns="http://www.w3.org/2000/svg" xmlns:xlink="http://www.w3.org/1999/xlink" x="0px" y="0px"
	 viewBox="0 0 669.9 366.2" style="enable-background:new 0 0 669.9 366.2;" xml:space="preserve">
<style type="text/css">
	.st0{fill-rule:evenodd;clip-rule:evenodd;fill:#9A831E;}
</style>
<path class="st0" d="M658.7,128.3c-1.9,42.9,12.2,70.7,6.8,153.7c-1.2,17.6,2.4,53.1-4.9,68.9c-4.2,8.9-30.2,3.7-39.6,5.7
	c-37.4,7.2-74.9,0.9-112.6,4.6c-41.7,4-82.5,8.6-123,0.7c-24-4.6-188.8-6.1-385.4-5.5V0l640.2,0c0,0.4,29.2,0.7,29.2,1.1
	c0.1,23.5-0.8,14.2,0.4,37.7c0.3,6.7-1,13.7-2.2,20.4C664.4,76.2,660.7,85.3,658.7,128.3z"/>
</svg>
