<?xml version="1.0" encoding="utf-8"?>
<!-- Generator: Adobe Illustrator 19.2.1, SVG Export Plug-In . SVG Version: 6.00 Build 0)  -->
<svg version="1.1" id="Layer_1" preserveAspectRatio="none" xmlns="http://www.w3.org/2000/svg" xmlns:xlink="http://www.w3.org/1999/xlink" x="0px" y="0px"
	 viewBox="0 0 1450.2 892" style="enable-background:new 0 0 1450.2 892;" xml:space="preserve">
<style type="text/css">
	.st0{fill:#9A831E;}
</style>
<path class="st0" d="M1.9,3l1448.3-3c0,0-0.9,70.8-0.9,113.1c0,54.3-21,121.8-24.4,186.8c-6.9,135.3,3.4,218.6,3.4,218.6
	s-17,95.4-4.1,145.4c13,49.9,3.8,149.3,3.8,159.5c0,10.2-0.7,68.6-0.7,68.6H14.9c0,0,1.5-76.4-0.4-96.4c-1.9-20-0.9-45.6,4.1-71.4
	c4.8-25.6-0.7-60.2-6.7-71.6c-6-11.6-9.7-14.2-5.8-26.8c3.9-12.7-5.3-41.4-6-89.1C-0.6,488.6,1.9,3,1.9,3z"/>
</svg>
