<?xml version="1.0" encoding="utf-8"?>
<!-- Generator: Adobe Illustrator 19.2.1, SVG Export Plug-In . SVG Version: 6.00 Build 0)  -->
<svg version="1.1" id="Layer_1" preserveAspectRatio="none" xmlns="http://www.w3.org/2000/svg" xmlns:xlink="http://www.w3.org/1999/xlink" x="0px" y="0px"
	 viewBox="0 0 1450.2 865.2" style="enable-background:new 0 0 1450.2 865.2;" xml:space="preserve">
<style type="text/css">
	.st0{fill-rule:evenodd;clip-rule:evenodd;fill:#4B351C;}
</style>
<path class="st0" d="M1432.2,625.2l1.2-57c0,0-0.7-81.1,5.6-120.2c1.5-9.4-0.2-19.3,2.1-28.8c3.1-12.9-1.7-25,0.6-38
	c0.9-5.1,1.8-10.4,1.6-15.3c-0.9-17.4-3.3-27.5-3.4-45c0-7.7-0.4-15.1-1.4-22.2c1.9-23.7,8.1-58.9,9.1-71.9c0.2-3.3,0.4-5.7,0.5-7.4
	c0.2-0.9,0.4-2.2,0.6-3.8c3.1-20.6,0.3-42.3-0.2-58.2c-0.2-6.6-21-33.6-21-64.3c0-43.6-0.1-92.2-0.1-92.2L16.3,0
	c1.5,13.6-1,35.2-1.6,58.3c-0.9,37.3-12,78.6-14,94.9c-3.6,26.5,8.5,79.1,12.1,111c3.6,31.6-0.8,87.3-4.9,108
	c-4.4,20.8-3.2,15.9-5.1,33.1c-0.8,7.1,11.3,29.6,14.2,48c0.2,2,0.4,4,0.6,6c0,0.4,0,0.7,0,1.1c0,19.4-1.3,51.1-1.3,51.1l0.1,0
	c-2,17.2-4.5,34.5-4.3,51.4c0.5,53.4-1.2,211.7-1.2,211.7l1.1,90.7L1432.2,625.2z"/>
</svg>
