<?xml version="1.0" encoding="utf-8"?>
<!-- Generator: Adobe Illustrator 19.2.1, SVG Export Plug-In . SVG Version: 6.00 Build 0)  -->
<svg version="1.1" preserveAspectRatio="none" id="Layer_1" xmlns="http://www.w3.org/2000/svg" xmlns:xlink="http://www.w3.org/1999/xlink" x="0px" y="0px"
	 viewBox="0 0 706.2 366.4" style="enable-background:new 0 0 706.2 366.4;" xml:space="preserve">
<style type="text/css">
	.st0{fill-rule:evenodd;clip-rule:evenodd;fill:#9A831E;}
</style>
<path class="st0" d="M0,0h706.2v357.5c-198.1,0.7-424.1,3.4-448.6,7c-33.1,4.8-63.8-1.2-99.7-1.8c-34.2-0.5-67.6-0.7-101.4-3.6
	c-28.1-2.4-32,3.2-40.7-34.8c-2.4-10.7-3.6-30.1-3.9-41.3c-1.3-43.4,23.2-114.1-6.8-161.1c-4.2-6.7,4-12.4,3.9-20.1
	c-0.2-24.9-8-41.1-7.4-66C1.8,23.8,0.9,11.9,0,0z"/>
</svg>
