<?xml version="1.0" encoding="utf-8"?>
<!-- Generator: Adobe Illustrator 19.2.1, SVG Export Plug-In . SVG Version: 6.00 Build 0)  -->
<svg version="1.1" id="Layer_1" preserveAspectRatio="none" xmlns="http://www.w3.org/2000/svg" xmlns:xlink="http://www.w3.org/1999/xlink" x="0px" y="0px"
	 viewBox="0 0 1500 661.2" style="enable-background:new 0 0 1500 661.2;" xml:space="preserve">
<style type="text/css">
	.st0{fill-rule:evenodd;clip-rule:evenodd;fill:#DFEDFB;}
</style>
<path class="st0" d="M1496.7,607c5.8,25.7,1.8,53.1,1.7,52.9c-522.3-0.6-1035.9,1.8-1496.9,1.2c0-31.5-0.2-20.6-0.3-31.1
	c0-5.5-1.1-68.7-1.2-77.2C0.1,580,6.2,444.5,7,323.2c0.4-64.7-4.1-132.6-3.2-145c1.5-19.6,4.3-30.7,8.6-43.5
	c14.8-42.4,29.1-45.7,54.8-55.9c25.7-8.7,45.6-10.4,72-17.8c13.5-3.6,27.9-6.4,44.4-7.1c69.9-3.1,118-5.6,131.6-4.1
	c13.5,1.5,44.7,1.6,38.4,2.3c24.3-2.6,48.9-31.7,74.9-34.3c3.5-0.3,7.8-0.1,11.6-0.2c24.6-0.7,56.6-2.8,82.4-3.5
	c20.3-0.5,41.8-4.9,62.5-5.5c37.8-1.2,70-1.2,108.3-2.7c54.8-2.1,109.8,5.9,164.2,3.9c36.1-1.2,64.4,0.4,159.2-2
	c30.3-0.8,164.1,3.5,186.3-1.7c6.2-1.4,39.4-3.1,60.4-5.7c4.3-0.5,11.1-0.6,19.1-0.4c4,0.1,8.3,0.2,12.8,0.4c1.1,0,2.2,0.1,3.4,0.2
	c1.1,0.1,2.3,0.1,3.4,0.2c2.3,0.1,4.6,0.2,6.9,0.4c18.4,1.1,36.7,2.6,44.6,3.2c7.5,0.6,15.2,0.8,23.1,1c4,0.1,8,0.2,12,0.4
	c2,0.1,4,0.2,6.1,0.3c2,0.1,4.1,0.2,6.1,0.4c16.3,1.3,32.8,4.2,49,13c18.4,9.9,17.2,48.8,22,70c11.3,48.4-6,130.3,15.3,163.1
	c1.5,2.3,2.8,4.6,3.4,6.6c5.8,21.9,14.3,69.8,6.2,120.2c-8.2,50.3-14.2,115.3-11.6,144.8C1487.6,553.5,1489.4,574.7,1496.7,607z"/>
</svg>
