<?xml version="1.0" encoding="utf-8"?>
<!-- Generator: Adobe Illustrator 19.0.0, SVG Export Plug-In . SVG Version: 6.00 Build 0)  -->
<svg version="1.1" id="Layer_1" preserveAspectRatio="none" xmlns="http://www.w3.org/2000/svg" xmlns:xlink="http://www.w3.org/1999/xlink" x="0px" y="0px"
	 viewBox="0 0 230.7 386" style="enable-background:new 0 0 230.7 386;" xml:space="preserve">
<path d="M16.9,10.2c6.3-1.4,13.5-1.9,20.5-2.3C57.9,6.6,78.5,5.6,99,4.2c5-0.3,9.6-1.7,14.5-2.2c6.7-0.7,13.5-1.2,20.3-1.7
	c2.7-0.2,5.5-0.4,8.1-0.3c9.4,0.4,18.8,1.3,28.2,1.5c10.7,0.3,20.6,1.1,29.5,4.4c4,1.5,11.4,2.7,21.8,3.3
	c6.3,0.3,12.2,67.7,7.6,83.5c-1.5,5.2,6.1,212.5-3.8,283.5c-1.1,7.7-10.2,5.9-13.7,9.8c-17.5-0.1-35,0-52.6,0
	c-2.4,0-4.8-0.2-7.2-0.3c-7.3-0.4-14.7-1-22-1.1c-9.9-0.1-19.9,0.6-29.9,0.3c-20.4-0.5-40.9-1.4-61.3-2.1c-4.5-0.2-9.1-0.2-13.3-0.8
	c-15.1-2.1-15.9-3.4-16.9-9.2c-1.2-7-1.5-13.9-3.8-20.9c-2.2-6.6-0.2-13.7,1.7-20.4C9.2,321.4,3.2,123.2,1,101.8
	c-2.3-21.4,0-54.9,1.6-63.5C4,30.7,6.3,23,9.1,15.4C9.8,13.4,13.4,11,16.9,10.2z"/>
</svg>
