<?xml version="1.0" encoding="utf-8"?>
<!-- Generator: Adobe Illustrator 19.0.0, SVG Export Plug-In . SVG Version: 6.00 Build 0)  -->
<svg version="1.1" id="Layer_1" preserveAspectRatio="none" xmlns="http://www.w3.org/2000/svg" xmlns:xlink="http://www.w3.org/1999/xlink" x="0px" y="0px"
	 viewBox="-342 147 275 267" style="enable-background:new -342 147 275 267;" xml:space="preserve">
<style type="text/css">
	.st0{fill:#FFFFFF;}
</style>
<path class="st0" d="M-74.3,399.9c1-7.6,1.3-16.4,1.6-24.8c0.9-24.7,1.7-49.6,2.6-74.3c0.2-6,1.2-11.6,1.6-17.5
	c0.5-8.1,0.8-16.4,1.2-24.6c0.1-3.2,0.3-6.6,0.2-9.8c-0.3-11.3-0.9-22.6-1.1-34c-0.2-12.9-0.8-24.8-3.1-35.6
	c-1-4.9-1.9-13.7-2.3-26.3c-0.2-7.6-49.8-6.1-68.2-5.5c-4.4,0.2-162.3-1.8-193.2,1c-5.7,0.5-4.2,12.3-7,16.5c0.1,21.1,0,42.3,0,63.4
	c0,2.9,0.1,5.8,0.2,8.7c0.3,8.9,0.8,17.7,0.8,26.6c0.1,12-0.4,24.1-0.2,36c0.4,24.7,1,49.3,1.5,74c0.1,5.4,0.1,10.9,0.6,16.1
	c1.5,18.3,2.4,19.2,6.5,20.4c5,1.4,7.3-1.7,12.3,1.1c4.7,2.6,31.8,0.5,37.4,0.9c16.4,1.2,152.5-1,161.6,0
	c11.6,1.3,20.5,2.9,26.5,0.9c5.5-1.8,11.4-0.3,16.8-3.7C-76.5,408.5-74.8,404.2-74.3,399.9z"/>
</svg>
