<?xml version="1.0" encoding="utf-8"?>
<!-- Generator: Adobe Illustrator 19.0.0, SVG Export Plug-In . SVG Version: 6.00 Build 0)  -->
<svg version="1.1" id="Layer_1" preserveAspectRatio="none" xmlns="http://www.w3.org/2000/svg" xmlns:xlink="http://www.w3.org/1999/xlink" x="0px" y="0px"
	 viewBox="0 0 651 322" style="enable-background:new 0 0 651 322;" xml:space="preserve">
<style type="text/css">
	.st0{fill:#4B351C;}
</style>
<path class="st0" d="M17.1,298.4c-2.3-8.8-3.1-18.9-3.9-28.6c-2.2-28.6-3.9-57.3-6.1-85.9c-0.5-6.9-2.8-13.4-3.7-20.3
	c-1.2-9.4-2-18.9-2.8-28.4c-0.3-3.7-0.7-7.6-0.5-11.3c0.7-13.1,2.1-26.2,2.5-39.3c0.4-15,1.9-28.7,7.3-41.2
	c2.5-5.6,4.5-15.9,5.5-30.4C15.9,4.2,128.5-4.2,154.9,2.3c8.7,2.1,361.1-8.5,479.6,5.3c12.8,1.5,9.8,14.2,16.4,19.1
	c-0.1,24.5,0,48.9-0.1,73.4c0,3.3-0.3,6.7-0.5,10c-0.6,10.2-1.7,20.5-1.8,30.7c-0.2,13.9,0.9,27.8,0.5,41.7
	c-0.8,28.5-2.3,57-3.6,85.5c-0.3,6.2-0.3,12.7-1.3,18.6c-3.5,21.1-5.7,22.2-15.3,23.6c-11.6,1.7-23.2,2.1-34.9,5.4
	c-11,3-22.8,0.3-34.1-2.4c-16.8-4-354,4.4-389.7,7.5c-35.7,3.2-91.8,0-106-2.2c-12.9-2-25.7-5.2-38.5-9.1
	C22.5,308.3,18.4,303.4,17.1,298.4z"/>
</svg>
